<?xml version="1.0" encoding="UTF-8"?>
<!--Generator: Apple Native CoreSVG 326-->
<!DOCTYPE svg
PUBLIC "-//W3C//DTD SVG 1.1//EN"
       "http://www.w3.org/Graphics/SVG/1.1/DTD/svg11.dtd">
<svg version="1.1" xmlns="http://www.w3.org/2000/svg" xmlns:xlink="http://www.w3.org/1999/xlink" viewBox="0 0 140.286 140.14">
 <g>
  <rect height="118.14" opacity="0" width="118.286" x="0" y="0"/>
  <path d="M118.286 59.0332C118.286 49.0723 115.723 39.624 111.182 31.3477L111.182 86.7188C115.723 78.4424 118.286 68.9941 118.286 59.0332Z" fill="#af52de"/>
  <path d="M98.8037 102.612C101.367 100.269 103.784 97.7051 105.908 94.9219L105.908 23.2178C103.784 20.4346 101.367 17.7979 98.8037 15.4541Z" fill="#5856d6"/>
  <path d="M86.4258 111.328C88.916 110.01 91.2598 108.545 93.5303 106.86L93.5303 11.2061C91.2598 9.52148 88.916 8.05664 86.4258 6.73828Z" fill="#3e33f1"/>
  <path d="M74.1211 116.235C76.5381 115.503 78.8818 114.771 81.1523 113.818L81.1523 4.32129C78.8818 3.2959 76.5381 2.56348 74.1211 1.9043Z" fill="#007aff"/>
  <path d="M61.7432 118.066C64.1602 117.993 66.5039 117.7 68.8477 117.407L68.8477 0.732422C66.5039 0.366211 64.1602 0.0732422 61.7432 0Z" fill="#00c7be"/>
  <path d="M49.4385 117.407C51.7822 117.7 54.126 117.993 56.543 118.066L56.543 0C54.126 0.0732422 51.7822 0.366211 49.4385 0.65918Z" fill="#57df24"/>
  <path d="M37.0605 113.818C39.3311 114.771 41.748 115.503 44.165 116.235L44.165 1.83105C41.748 2.49023 39.3311 3.2959 37.0605 4.24805Z" fill="#ecf701"/>
  <path d="M24.7559 106.86C27.0264 108.545 29.2969 110.01 31.7871 111.328L31.7871 6.73828C29.2969 7.9834 27.0264 9.44824 24.7559 11.1328Z" fill="#ffcc00"/>
  <path d="M12.3779 94.9219C14.502 97.7051 16.9189 100.269 19.4824 102.612L19.4824 15.3809C16.9189 17.7246 14.502 20.3613 12.3779 23.1445Z" fill="#ff9500"/>
  <path d="M0 59.0332C0 68.9941 2.56348 78.4424 7.10449 86.7188L7.10449 31.3477C2.56348 39.624 0 49.0723 0 59.0332Z" fill="#ff3b30"/>
 </g>
</svg>
