<?xml version="1.0" encoding="UTF-8"?>
<!--Generator: Apple Native CoreSVG 326-->
<!DOCTYPE svg
PUBLIC "-//W3C//DTD SVG 1.1//EN"
       "http://www.w3.org/Graphics/SVG/1.1/DTD/svg11.dtd">
<svg version="1.1" xmlns="http://www.w3.org/2000/svg" xmlns:xlink="http://www.w3.org/1999/xlink" viewBox="0 0 155.174 155.101">
 <g>
  <rect height="128.101" opacity="0" width="128.174" x="0" y="0"/>
  <path d="M64.0869 6.15234C65.8447 6.15234 67.2363 4.83398 67.2363 3.07617C67.2363 1.31836 65.8447 0 64.0869 0C62.4023 0 61.0107 1.31836 61.0107 3.07617C61.0107 4.83398 62.4023 6.15234 64.0869 6.15234ZM74.707 7.10449C76.4648 7.10449 77.7832 5.78613 77.7832 4.02832C77.7832 2.27051 76.4648 0.952148 74.707 0.952148C72.9492 0.952148 71.6309 2.27051 71.6309 4.02832C71.6309 5.78613 72.9492 7.10449 74.707 7.10449ZM84.9609 9.81445C86.7188 9.81445 88.0371 8.49609 88.0371 6.73828C88.0371 4.98047 86.7188 3.66211 84.9609 3.66211C83.2031 3.66211 81.8848 4.98047 81.8848 6.73828C81.8848 8.49609 83.2031 9.81445 84.9609 9.81445ZM94.6289 14.4287C96.3135 14.4287 97.7051 13.1104 97.7051 11.3525C97.7051 9.59473 96.3135 8.27637 94.6289 8.27637C92.8711 8.27637 91.4795 9.59473 91.4795 11.3525C91.4795 13.1104 92.8711 14.4287 94.6289 14.4287ZM103.345 20.5078C105.029 20.5078 106.421 19.1162 106.421 17.4316C106.421 15.6738 105.029 14.2822 103.345 14.2822C101.587 14.2822 100.195 15.6738 100.195 17.4316C100.195 19.1162 101.587 20.5078 103.345 20.5078ZM110.815 28.0518C112.573 28.0518 113.965 26.6602 113.965 24.9756C113.965 23.2178 112.573 21.8262 110.815 21.8262C109.131 21.8262 107.739 23.2178 107.739 24.9756C107.739 26.6602 109.131 28.0518 110.815 28.0518ZM116.968 36.8408C118.726 36.8408 120.117 35.4492 120.117 33.6914C120.117 32.0068 118.726 30.6152 116.968 30.6152C115.283 30.6152 113.892 32.0068 113.892 33.6914C113.892 35.4492 115.283 36.8408 116.968 36.8408ZM121.436 46.4355C123.193 46.4355 124.585 45.0439 124.585 43.2861C124.585 41.6016 123.193 40.21 121.436 40.21C119.751 40.21 118.359 41.6016 118.359 43.2861C118.359 45.0439 119.751 46.4355 121.436 46.4355ZM124.146 56.6162C125.903 56.6162 127.295 55.2979 127.295 53.54C127.295 51.7822 125.903 50.4639 124.146 50.4639C122.461 50.4639 121.069 51.7822 121.069 53.54C121.069 55.2979 122.461 56.6162 124.146 56.6162ZM125.098 67.0898C126.855 67.0898 128.174 65.7715 128.174 64.0137C128.174 62.2559 126.855 60.9375 125.098 60.9375C123.34 60.9375 122.021 62.2559 122.021 64.0137C122.021 65.7715 123.34 67.0898 125.098 67.0898ZM124.146 77.5635C125.903 77.5635 127.295 76.2451 127.295 74.4873C127.295 72.7295 125.903 71.4111 124.146 71.4111C122.461 71.4111 121.069 72.7295 121.069 74.4873C121.069 76.2451 122.461 77.5635 124.146 77.5635ZM121.436 87.8174C123.193 87.8174 124.585 86.4258 124.585 84.7412C124.585 82.9834 123.193 81.5918 121.436 81.5918C119.751 81.5918 118.359 82.9834 118.359 84.7412C118.359 86.4258 119.751 87.8174 121.436 87.8174ZM116.968 97.4121C118.726 97.4121 120.117 96.0205 120.117 94.3359C120.117 92.5781 118.726 91.1865 116.968 91.1865C115.283 91.1865 113.892 92.5781 113.892 94.3359C113.892 96.0205 115.283 97.4121 116.968 97.4121ZM110.815 106.201C112.573 106.201 113.965 104.81 113.965 103.052C113.965 101.367 112.573 99.9756 110.815 99.9756C109.131 99.9756 107.739 101.367 107.739 103.052C107.739 104.81 109.131 106.201 110.815 106.201ZM103.345 113.745C105.029 113.745 106.421 112.354 106.421 110.596C106.421 108.911 105.029 107.52 103.345 107.52C101.587 107.52 100.195 108.911 100.195 110.596C100.195 112.354 101.587 113.745 103.345 113.745ZM94.6289 119.751C96.3135 119.751 97.7051 118.433 97.7051 116.675C97.7051 114.917 96.3135 113.599 94.6289 113.599C92.8711 113.599 91.4795 114.917 91.4795 116.675C91.4795 118.433 92.8711 119.751 94.6289 119.751ZM84.9609 124.365C86.7188 124.365 88.0371 123.047 88.0371 121.289C88.0371 119.531 86.7188 118.213 84.9609 118.213C83.2031 118.213 81.8848 119.531 81.8848 121.289C81.8848 123.047 83.2031 124.365 84.9609 124.365ZM74.707 127.075C76.4648 127.075 77.7832 125.757 77.7832 123.999C77.7832 122.241 76.4648 120.923 74.707 120.923C72.9492 120.923 71.6309 122.241 71.6309 123.999C71.6309 125.757 72.9492 127.075 74.707 127.075ZM64.0869 128.027C65.8447 128.027 67.2363 126.709 67.2363 124.951C67.2363 123.193 65.8447 121.875 64.0869 121.875C62.4023 121.875 61.0107 123.193 61.0107 124.951C61.0107 126.709 62.4023 128.027 64.0869 128.027ZM53.4668 127.075C55.2246 127.075 56.6162 125.757 56.6162 123.999C56.6162 122.241 55.2246 120.923 53.4668 120.923C51.7822 120.923 50.3906 122.241 50.3906 123.999C50.3906 125.757 51.7822 127.075 53.4668 127.075ZM43.2861 124.365C44.9707 124.365 46.3623 123.047 46.3623 121.289C46.3623 119.531 44.9707 118.213 43.2861 118.213C41.5283 118.213 40.1367 119.531 40.1367 121.289C40.1367 123.047 41.5283 124.365 43.2861 124.365ZM33.6182 119.751C35.3027 119.751 36.6943 118.433 36.6943 116.675C36.6943 114.917 35.3027 113.599 33.6182 113.599C31.8604 113.599 30.4688 114.917 30.4688 116.675C30.4688 118.433 31.8604 119.751 33.6182 119.751ZM24.9023 113.745C26.5869 113.745 27.9785 112.354 27.9785 110.596C27.9785 108.911 26.5869 107.52 24.9023 107.52C23.1445 107.52 21.8262 108.911 21.8262 110.596C21.8262 112.354 23.1445 113.745 24.9023 113.745ZM17.3584 106.201C19.1162 106.201 20.4346 104.81 20.4346 103.052C20.4346 101.367 19.1162 99.9756 17.3584 99.9756C15.6006 99.9756 14.2822 101.367 14.2822 103.052C14.2822 104.81 15.6006 106.201 17.3584 106.201ZM11.2061 97.4121C12.9639 97.4121 14.2822 96.0205 14.2822 94.3359C14.2822 92.5781 12.9639 91.1865 11.2061 91.1865C9.52148 91.1865 8.12988 92.5781 8.12988 94.3359C8.12988 96.0205 9.52148 97.4121 11.2061 97.4121ZM6.73828 87.8174C8.49609 87.8174 9.8877 86.4258 9.8877 84.7412C9.8877 82.9834 8.49609 81.5918 6.73828 81.5918C5.05371 81.5918 3.66211 82.9834 3.66211 84.7412C3.66211 86.4258 5.05371 87.8174 6.73828 87.8174ZM4.02832 77.5635C5.78613 77.5635 7.17773 76.2451 7.17773 74.4873C7.17773 72.7295 5.78613 71.4111 4.02832 71.4111C2.34375 71.4111 0.952148 72.7295 0.952148 74.4873C0.952148 76.2451 2.34375 77.5635 4.02832 77.5635ZM3.07617 67.0898C4.83398 67.0898 6.22559 65.7715 6.22559 64.0137C6.22559 62.2559 4.83398 60.9375 3.07617 60.9375C1.3916 60.9375 0 62.2559 0 64.0137C0 65.7715 1.3916 67.0898 3.07617 67.0898ZM4.02832 56.6162C5.78613 56.6162 7.17773 55.2979 7.17773 53.54C7.17773 51.7822 5.78613 50.4639 4.02832 50.4639C2.34375 50.4639 0.952148 51.7822 0.952148 53.54C0.952148 55.2979 2.34375 56.6162 4.02832 56.6162ZM6.73828 46.4355C8.49609 46.4355 9.8877 45.0439 9.8877 43.2861C9.8877 41.6016 8.49609 40.21 6.73828 40.21C5.05371 40.21 3.66211 41.6016 3.66211 43.2861C3.66211 45.0439 5.05371 46.4355 6.73828 46.4355ZM11.2061 36.8408C12.9639 36.8408 14.2822 35.4492 14.2822 33.6914C14.2822 32.0068 12.9639 30.6152 11.2061 30.6152C9.52148 30.6152 8.12988 32.0068 8.12988 33.6914C8.12988 35.4492 9.52148 36.8408 11.2061 36.8408ZM17.3584 28.0518C19.1162 28.0518 20.4346 26.6602 20.4346 24.9756C20.4346 23.2178 19.1162 21.8262 17.3584 21.8262C15.6006 21.8262 14.2822 23.2178 14.2822 24.9756C14.2822 26.6602 15.6006 28.0518 17.3584 28.0518ZM24.9023 20.5078C26.5869 20.5078 27.9785 19.1162 27.9785 17.4316C27.9785 15.6738 26.5869 14.2822 24.9023 14.2822C23.1445 14.2822 21.8262 15.6738 21.8262 17.4316C21.8262 19.1162 23.1445 20.5078 24.9023 20.5078ZM33.6182 14.4287C35.3027 14.4287 36.6943 13.1104 36.6943 11.3525C36.6943 9.59473 35.3027 8.27637 33.6182 8.27637C31.8604 8.27637 30.4688 9.59473 30.4688 11.3525C30.4688 13.1104 31.8604 14.4287 33.6182 14.4287ZM43.2861 9.81445C44.9707 9.81445 46.3623 8.49609 46.3623 6.73828C46.3623 4.98047 44.9707 3.66211 43.2861 3.66211C41.5283 3.66211 40.1367 4.98047 40.1367 6.73828C40.1367 8.49609 41.5283 9.81445 43.2861 9.81445ZM53.4668 7.10449C55.2246 7.10449 56.6162 5.78613 56.6162 4.02832C56.6162 2.27051 55.2246 0.952148 53.4668 0.952148C51.7822 0.952148 50.3906 2.27051 50.3906 4.02832C50.3906 5.78613 51.7822 7.10449 53.4668 7.10449Z" fill="#ffcc00"/>
  <path d="M64.0869 110.889C90.0146 110.889 110.962 89.9414 110.962 64.0137C110.962 38.2324 89.8682 17.1387 64.0869 17.1387C38.0859 17.1387 17.2119 38.0127 17.2119 64.0137C17.2119 90.0879 38.0127 110.889 64.0869 110.889ZM64.0869 104.736C41.3818 104.736 23.3643 86.7188 23.3643 64.0137C23.3643 41.4551 41.5283 23.291 64.0869 23.291C86.5723 23.291 104.81 41.5283 104.81 64.0137C104.81 86.5723 86.6455 104.736 64.0869 104.736Z" fill="#ffcc00"/>
  <path d="M64.0869 88.4033C77.5635 88.4033 88.3301 77.5635 88.3301 64.1602C88.3301 50.7568 77.5635 39.917 64.0869 39.917C50.6836 39.917 39.8438 50.7568 39.8438 64.1602C39.8438 77.6367 50.6104 88.4033 64.0869 88.4033ZM64.0869 76.3184C57.4219 76.3184 52.002 70.8252 52.002 64.1602C52.002 57.4219 57.4219 52.002 64.0869 52.002C70.752 52.002 76.2451 57.4951 76.2451 64.1602C76.2451 70.8252 70.8252 76.3184 64.0869 76.3184Z" fill="#ffcc00"/>
 </g>
</svg>
