<?xml version="1.0" encoding="UTF-8"?>
<!--Generator: Apple Native CoreSVG 326-->
<!DOCTYPE svg
PUBLIC "-//W3C//DTD SVG 1.1//EN"
       "http://www.w3.org/Graphics/SVG/1.1/DTD/svg11.dtd">
<svg version="1.1" xmlns="http://www.w3.org/2000/svg" xmlns:xlink="http://www.w3.org/1999/xlink" viewBox="0 0 261.768 211.597">
 <g>
  <rect height="211.597" opacity="0" width="261.768" x="0" y="0"/>
  <path d="M197.095 27.7588L199.643 42.1875L91.04 42.1875C65.6982 42.1875 50.9033 56.8359 50.9033 82.0312L50.9033 171.68C50.9033 171.831 50.9038 171.982 50.9198 172.121C38.2641 171.34 30.6448 163.459 28.0518 148.608L12.4512 60.3516C9.22852 41.8945 16.9922 30.9082 35.6689 27.6123L164.136 4.98047C182.739 1.68457 193.872 9.44824 197.095 27.7588Z" fill="#007aff" fill-opacity="0.5"/>
  <path d="M126.05 128.174C114.917 128.174 105.908 119.019 105.908 107.886C105.908 96.8994 114.917 87.6709 126.05 87.6709C137.109 87.6709 146.191 96.8994 146.191 107.886C146.191 119.019 137.109 128.174 126.05 128.174ZM88.3301 188.452C79.1748 188.452 73.6816 182.886 73.6816 173.73L73.6816 170.288L98.7305 147.656C102.319 144.434 105.908 142.822 109.79 142.822C114.038 142.822 117.847 144.434 121.362 147.729L136.67 161.572L175.049 127.588C179.15 124.072 183.252 122.388 188.159 122.388C192.993 122.388 197.388 124.146 201.27 127.734L238.989 162.671L238.989 173.804C238.989 182.959 233.35 188.452 224.414 188.452ZM91.04 199.878L221.558 199.878C240.454 199.878 250.049 190.283 250.049 171.68L250.049 82.0312C250.049 63.4277 240.454 53.833 221.558 53.833L91.04 53.833C72.1436 53.833 62.5488 63.3545 62.5488 82.0312L62.5488 171.68C62.5488 190.43 72.1436 199.878 91.04 199.878Z" fill="#007aff"/>
 </g>
</svg>
