<?xml version="1.0" encoding="UTF-8"?>
<!--Generator: Apple Native CoreSVG 326-->
<!DOCTYPE svg
PUBLIC "-//W3C//DTD SVG 1.1//EN"
       "http://www.w3.org/Graphics/SVG/1.1/DTD/svg11.dtd">
<svg version="1.1" xmlns="http://www.w3.org/2000/svg" xmlns:xlink="http://www.w3.org/1999/xlink" viewBox="0 0 130.821 98.8037">
 <g>
  <rect height="98.8037" opacity="0" width="116.821" x="0" y="0"/>
  <path d="M78.3691 98.8037C86.2793 98.8037 92.7246 92.3584 92.7246 84.4482C92.7246 76.6113 86.2793 70.166 78.3691 70.166C70.459 70.166 64.0137 76.6113 64.0137 84.4482C64.0137 92.3584 70.459 98.8037 78.3691 98.8037ZM78.3691 90.9668C74.707 90.9668 71.8506 88.1104 71.8506 84.4482C71.8506 80.7861 74.707 77.9297 78.3691 77.9297C82.0312 77.9297 84.8877 80.7861 84.8877 84.4482C84.8877 88.1104 82.0312 90.9668 78.3691 90.9668ZM69.3604 79.1748L5.27344 79.1748C2.34375 79.1748 0 81.5186 0 84.4482C0 87.4512 2.34375 89.7217 5.27344 89.7217L69.3604 89.7217ZM111.768 79.1748L88.4766 79.1748L88.4766 89.7217L111.768 89.7217C114.478 89.7217 116.821 87.4512 116.821 84.4482C116.821 81.5186 114.478 79.1748 111.768 79.1748ZM38.5986 63.7939C46.5088 63.7939 52.9541 57.3486 52.9541 49.4385C52.9541 41.6016 46.5088 35.1562 38.5986 35.1562C30.6885 35.1562 24.2432 41.6016 24.2432 49.4385C24.2432 57.3486 30.6885 63.7939 38.5986 63.7939ZM38.5986 55.957C34.9365 55.957 32.0801 53.1006 32.0801 49.4385C32.0801 45.7764 34.9365 42.9199 38.5986 42.9199C42.2607 42.9199 45.1172 45.7764 45.1172 49.4385C45.1172 53.1006 42.2607 55.957 38.5986 55.957ZM4.98047 44.165C2.34375 44.165 0 46.5088 0 49.4385C0 52.4414 2.34375 54.7119 4.98047 54.7119L28.5645 54.7119L28.5645 44.165ZM111.548 44.165L47.6807 44.165L47.6807 54.7119L111.548 54.7119C114.478 54.7119 116.821 52.4414 116.821 49.4385C116.821 46.5088 114.478 44.165 111.548 44.165ZM78.3691 28.7842C86.2793 28.7842 92.7246 22.3389 92.7246 14.4287C92.7246 6.51855 86.2793 0.0732422 78.3691 0.0732422C70.459 0.0732422 64.0137 6.51855 64.0137 14.4287C64.0137 22.3389 70.459 28.7842 78.3691 28.7842ZM78.3691 20.9473C74.707 20.9473 71.8506 18.0176 71.8506 14.4287C71.8506 10.6934 74.707 7.91016 78.3691 7.91016C82.0312 7.91016 84.8877 10.6934 84.8877 14.4287C84.8877 18.0176 82.0312 20.9473 78.3691 20.9473ZM69.7998 9.15527L5.27344 9.15527C2.34375 9.15527 0 11.499 0 14.4287C0 17.3584 2.34375 19.7021 5.27344 19.7021L69.7998 19.7021ZM111.768 9.15527L87.4512 9.15527L87.4512 19.7021L111.768 19.7021C114.478 19.7021 116.821 17.3584 116.821 14.4287C116.821 11.499 114.478 9.15527 111.768 9.15527Z" fill="black" fill-opacity="0.5"/>
 </g>
</svg>
